<mxfile host="app.diagrams.net" modified="2023-06-13T07:52:02.859Z" agent="Mozilla/5.0 (Macintosh; Intel Mac OS X 10_15_7) AppleWebKit/537.36 (KHTML, like Gecko) Chrome/114.0.0.0 Safari/537.36" etag="O-kH1Y7gjjpCcwrfNd-v" version="21.3.8" type="github">
  <diagram name="Page-1" id="wo_LWf13mEeeHLD1T58r">
    <mxGraphModel dx="901" dy="518" grid="1" gridSize="10" guides="1" tooltips="1" connect="1" arrows="1" fold="1" page="1" pageScale="1" pageWidth="827" pageHeight="1169" math="0" shadow="0">
      <root>
        <mxCell id="0" />
        <mxCell id="1" parent="0" />
        <mxCell id="7pYUuUTVSUhhxFIqMtHC-1" value="holder(sinh viên)" style="shape=umlActor;verticalLabelPosition=bottom;verticalAlign=top;html=1;" vertex="1" parent="1">
          <mxGeometry x="90" y="420" width="30" height="60" as="geometry" />
        </mxCell>
        <mxCell id="7pYUuUTVSUhhxFIqMtHC-2" value="Đăng nhập" style="ellipse;whiteSpace=wrap;html=1;" vertex="1" parent="1">
          <mxGeometry x="250" y="310" width="140" height="70" as="geometry" />
        </mxCell>
        <mxCell id="7pYUuUTVSUhhxFIqMtHC-3" value="đăng ký" style="ellipse;whiteSpace=wrap;html=1;" vertex="1" parent="1">
          <mxGeometry x="250" y="415" width="140" height="70" as="geometry" />
        </mxCell>
      </root>
    </mxGraphModel>
  </diagram>
</mxfile>
